# xmcd
#
# Track frame offsets: 
#        150
#        718
#        19943
#        42868
#        65785
#        70273
#        92418
#        113150
#        134255
#        134963
#        156905
#        178648
#
# Disc length: 2388 seconds
#
# Revision: 1
# Processed by: cddbd v1.5.2PL0 Copyright (c) Steve Scherf et al.
# Submitted via: ExactAudioCopy v0.99pb5
#
DISCID=a909520c
DTITLE=Sol - Si Te Vas
DYEAR=2008
DGENRE=Salsa
TTITLE0=Intro: Sol's Dad (Julio Marchena) opening
TTITLE1=Si Te Vas
TTITLE2=Tu Recuerdos
TTITLE3=El Rey/La Reina
TTITLE4=Intro: Los Hermanos Colón w/ Wichy Camacho
TTITLE5=Sabre Olvidar
TTITLE6=Ganas
TTITLE7=Venganza
TTITLE8=Intro: Wichy Camacho w/ Los Hermanos Colón
TTITLE9=Alla en Los Caserios
TTITLE10=Imprescindible
TTITLE11=Sol's Dad closing
EXTD=YEAR: 2008
EXTT0=
EXTT1=
EXTT2=
EXTT3=
EXTT4=
EXTT5=
EXTT6=
EXTT7=
EXTT8=
EXTT9=
EXTT10=
EXTT11=
PLAYORDER=
